<svg width="97" height="97" viewBox="0 0 97 97" fill="none" xmlns="http://www.w3.org/2000/svg">
<path fill-rule="evenodd" clip-rule="evenodd" d="M18.8334 3C20.5813 3 22 4.41868 22 6.16664C22 7.91461 20.5813 9.33328 18.8334 9.33328H9.33328V18.8334C9.33328 20.5813 7.91461 22 6.16664 22C4.41867 22 3 20.5813 3 18.8334V6.17297C3 4.425 4.41867 3.00633 6.16664 3.00633H18.827L18.8334 3Z" fill="#55A46D" fill-opacity="0.45"/>
<path fill-rule="evenodd" clip-rule="evenodd" d="M18.8334 94C20.5813 94 22 92.5813 22 90.8334C22 89.0854 20.5813 87.6667 18.8334 87.6667H9.33328V78.1666C9.33328 76.4187 7.91461 75 6.16664 75C4.41867 75 3 76.4187 3 78.1666V90.827C3 92.575 4.41867 93.9937 6.16664 93.9937H18.827L18.8334 94Z" fill="#55A46D" fill-opacity="0.45"/>
<path fill-rule="evenodd" clip-rule="evenodd" d="M78.1666 3C76.4187 3 75 4.41867 75 6.16664C75 7.91461 76.4187 9.33328 78.1666 9.33328L87.6667 9.33328L87.6667 18.8334C87.6667 20.5813 89.0854 22 90.8334 22C92.5813 22 94 20.5813 94 18.8334L94 6.17296C94 4.425 92.5813 3.00632 90.8334 3.00632L78.173 3.00633L78.1666 3Z" fill="#55A46D" fill-opacity="0.45"/>
<path fill-rule="evenodd" clip-rule="evenodd" d="M94 78.1666C94 76.4187 92.5813 75 90.8334 75C89.0854 75 87.6667 76.4187 87.6667 78.1666L87.6667 87.6667L78.1666 87.6667C76.4187 87.6667 75 89.0854 75 90.8334C75 92.5813 76.4187 94 78.1666 94L90.827 94C92.575 94 93.9937 92.5813 93.9937 90.8334L93.9937 78.173L94 78.1666Z" fill="#55A46D" fill-opacity="0.45"/>
<path d="M84.5433 46.293C74.9783 32.3854 60.4555 24.2615 47.9362 24.2615C35.4169 24.2615 20.8942 32.3855 11.3276 46.293C11.0191 46.7415 10.733 47.3389 10.733 47.9363C10.733 48.5343 11.0191 49.1305 11.3276 49.5796C20.8944 63.4872 35.4169 71.6111 47.9362 71.6111C60.4555 71.6111 74.9781 63.4871 84.5433 49.5796C84.8535 49.1305 85.1396 48.5343 85.1396 47.9363C85.1396 47.3389 84.8536 46.7415 84.5433 46.293ZM47.9362 65.0354C38.5015 65.0354 30.8521 57.3794 30.8521 47.9362C30.8521 38.4929 38.5012 30.837 47.9362 30.837C57.3711 30.837 65.0203 38.4929 65.0203 47.9362C65.0203 57.3794 57.3711 65.0354 47.9362 65.0354Z" fill="#55A46D"/>
<path d="M41.5742 46.1491C44.0992 46.1491 46.1483 44.1007 46.1483 41.5749C46.1483 39.8012 45.1374 38.2668 43.6634 37.5073C44.9819 36.9657 46.4231 36.6626 47.9366 36.6626C54.1622 36.6626 59.2101 41.7106 59.2101 47.9363C59.2101 54.1615 54.1622 59.21 47.936 59.21C41.7093 59.21 36.6626 54.1626 36.6626 47.9363C36.6626 46.4221 36.9657 44.9809 37.5073 43.6624C38.2655 45.1375 39.8 46.1491 41.5742 46.1491Z" fill="#55A46D"/>
</svg>
