<svg width="97" height="97" viewBox="0 0 97 97" fill="none" xmlns="http://www.w3.org/2000/svg">
<path d="M43.4 11.5375H46.5V20.2375C46.5 21.4375 47.4 22.3375 48.6 22.3375C49.8 22.3375 50.7 21.4375 50.7 20.2375V11.5375H53.8C54.5 11.5375 55.2 11.1375 55.5 10.4375C55.8 9.7375 55.7 8.9375 55.3 8.4375L50 1.7375C49.3 0.8375 47.7 0.8375 47 1.7375L41.7 8.4375C41.2 9.0375 41.2 9.8375 41.5 10.4375C41.9 11.1375 42.6 11.5375 43.4 11.5375Z" fill="#55A46D" fill-opacity="0.65"/>
<path d="M53.6 85.4375H50.5V76.7375C50.5 75.5375 49.6 74.6375 48.4 74.6375C47.2 74.6375 46.3 75.5375 46.3 76.7375V85.4375H43.2C42.5 85.4375 41.8 85.8375 41.5 86.5375C41.2 87.2375 41.3 88.0375 41.7 88.5375L47 95.2375C47.4 95.7375 47.9 95.9375 48.5 95.9375C49.1 95.9375 49.6 95.6375 50 95.2375L55.3 88.5375C55.8 87.9375 55.8 87.1375 55.5 86.5375C55.1 85.9375 54.4 85.4375 53.6 85.4375Z" fill="#55A46D" fill-opacity="0.65"/>
<path d="M95.3 47.1375L88.6 41.8375C88 41.3375 87.2 41.3375 86.6 41.6375C85.9 41.9375 85.5 42.6375 85.5 43.3375V46.5375H76.8C75.6 46.5375 74.7 47.4375 74.7 48.6375C74.7 49.8375 75.6 50.7375 76.8 50.7375H85.5V53.8375C85.5 54.5375 85.9 55.2375 86.6 55.5375C86.9 55.6375 87.2 55.7375 87.4 55.7375C87.8 55.7375 88.2 55.6375 88.6 55.3375L95.3 50.0375C95.8 49.6375 96 49.1375 96 48.5375C96 48.0375 95.7 47.4375 95.3 47.1375Z" fill="#55A46D" fill-opacity="0.65"/>
<path d="M22.3 48.4375C22.3 47.2375 21.4 46.3375 20.2 46.3375H11.5V43.2375C11.5 42.5375 11.1 41.8375 10.4 41.5375C9.7 41.2375 9 41.3375 8.4 41.7375L1.7 47.0375C1.2 47.4375 1 47.9375 1 48.5375C1 49.1375 1.3 49.6375 1.7 50.0375L8.4 55.3375C8.7 55.6375 9.2 55.7375 9.6 55.7375C9.9 55.7375 10.2 55.6375 10.4 55.5375C11.1 55.2375 11.5 54.5375 11.5 53.8375V50.5375H20.2C21.4 50.5375 22.3 49.5375 22.3 48.4375Z" fill="#55A46D" fill-opacity="0.65"/>
<path fill-rule="evenodd" clip-rule="evenodd" d="M17.7656 8C18.8437 8 19.7187 8.875 19.7187 9.9531C19.7187 11.0312 18.8437 11.9062 17.7656 11.9062H11.9062V17.7656C11.9062 18.8437 11.0312 19.7187 9.9531 19.7187C8.875 19.7187 8 18.8437 8 17.7656V9.957C8 8.8789 8.875 8.0039 9.9531 8.0039H17.7617L17.7656 8Z" fill="#55A46D" fill-opacity="0.45"/>
<path fill-rule="evenodd" clip-rule="evenodd" d="M17.7656 88.7187C18.8437 88.7187 19.7187 87.8437 19.7187 86.7656C19.7187 85.6875 18.8437 84.8125 17.7656 84.8125H11.9062V78.9531C11.9062 77.875 11.0312 77 9.9531 77C8.875 77 8 77.875 8 78.9531V86.7617C8 87.8398 8.875 88.7148 9.9531 88.7148H17.7617L17.7656 88.7187Z" fill="#55A46D" fill-opacity="0.45"/>
<path fill-rule="evenodd" clip-rule="evenodd" d="M78.9531 8C77.875 8 77 8.875 77 9.9531C77 11.0312 77.875 11.9062 78.9531 11.9062H84.8125V17.7656C84.8125 18.8437 85.6875 19.7187 86.7656 19.7187C87.8437 19.7187 88.7187 18.8437 88.7187 17.7656V9.957C88.7187 8.8789 87.8437 8.0039 86.7656 8.0039H78.957L78.9531 8Z" fill="#55A46D" fill-opacity="0.45"/>
<path fill-rule="evenodd" clip-rule="evenodd" d="M78.9531 88.7187C77.875 88.7187 77 87.8437 77 86.7656C77 85.6875 77.875 84.8125 78.9531 84.8125H84.8125V78.9531C84.8125 77.875 85.6875 77 86.7656 77C87.8437 77 88.7187 77.875 88.7187 78.9531V86.7617C88.7187 87.8398 87.8437 88.7148 86.7656 88.7148H78.957L78.9531 88.7187Z" fill="#55A46D" fill-opacity="0.45"/>
<path d="M69.1257 47.563C63.6667 39.6325 55.3781 35 48.2329 35C41.0878 35 32.7993 39.6325 27.3393 47.563C27.1633 47.8187 27 48.1594 27 48.5C27 48.841 27.1633 49.181 27.3393 49.437C32.7994 57.3675 41.0878 62 48.2329 62C55.3781 62 63.6666 57.3675 69.1257 49.437C69.3028 49.181 69.466 48.841 69.466 48.5C69.466 48.1593 69.3028 47.8187 69.1257 47.563ZM48.2329 58.2503C42.8483 58.2503 38.4825 53.8847 38.4825 48.4999C38.4825 43.1151 42.8481 38.7495 48.2329 38.7495C53.6177 38.7495 57.9834 43.1151 57.9834 48.4999C57.9834 53.8847 53.6177 58.2503 48.2329 58.2503Z" fill="#55A46D"/>
<path d="M44.5289 47.4593C45.9988 47.4593 47.1917 46.2669 47.1917 44.7966C47.1917 43.7641 46.6032 42.8709 45.7451 42.4287C46.5127 42.1134 47.3516 41.937 48.2327 41.937C51.8568 41.937 54.7953 44.8755 54.7953 48.4997C54.7953 52.1235 51.8568 55.0623 48.2323 55.0623C44.6075 55.0623 41.6697 52.1241 41.6697 48.4997C41.6697 47.6182 41.8461 46.7793 42.1614 46.0118C42.6028 46.8704 43.4961 47.4593 44.5289 47.4593Z" fill="#55A46D"/>
</svg>
